<svg id="visual" viewBox="0 0 900 450" width="900" height="450" xmlns="http://www.w3.org/2000/svg" xmlns:xlink="http://www.w3.org/1999/xlink" version="1.1"><path d="M0 154L13.7 158.3C27.3 162.7 54.7 171.3 82 171.5C109.3 171.7 136.7 163.3 163.8 160C191 156.7 218 158.3 245.2 158.2C272.3 158 299.7 156 327 154.5C354.3 153 381.7 152 409 156.8C436.3 161.7 463.7 172.3 491 179.5C518.3 186.7 545.7 190.3 573 188.7C600.3 187 627.7 180 654.8 174C682 168 709 163 736.2 164.5C763.3 166 790.7 174 818 172.8C845.3 171.7 872.7 161.3 886.3 156.2L900 151L900 451L886.3 451C872.7 451 845.3 451 818 451C790.7 451 763.3 451 736.2 451C709 451 682 451 654.8 451C627.7 451 600.3 451 573 451C545.7 451 518.3 451 491 451C463.7 451 436.3 451 409 451C381.7 451 354.3 451 327 451C299.7 451 272.3 451 245.2 451C218 451 191 451 163.8 451C136.7 451 109.3 451 82 451C54.7 451 27.3 451 13.7 451L0 451Z" fill="#e1ecdd"></path><path d="M0 320L13.7 311.8C27.3 303.7 54.7 287.3 82 280.5C109.3 273.7 136.7 276.3 163.8 283.2C191 290 218 301 245.2 304C272.3 307 299.7 302 327 298.3C354.3 294.7 381.7 292.3 409 287.7C436.3 283 463.7 276 491 276.8C518.3 277.7 545.7 286.3 573 289.7C600.3 293 627.7 291 654.8 296.2C682 301.3 709 313.7 736.2 319C763.3 324.3 790.7 322.7 818 321.2C845.3 319.7 872.7 318.3 886.3 317.7L900 317L900 451L886.3 451C872.7 451 845.3 451 818 451C790.7 451 763.3 451 736.2 451C709 451 682 451 654.8 451C627.7 451 600.3 451 573 451C545.7 451 518.3 451 491 451C463.7 451 436.3 451 409 451C381.7 451 354.3 451 327 451C299.7 451 272.3 451 245.2 451C218 451 191 451 163.8 451C136.7 451 109.3 451 82 451C54.7 451 27.3 451 13.7 451L0 451Z" fill="#b5d0ab"></path></svg>