<svg id="visual" viewBox="0 0 960 540" width="960" height="540" xmlns="http://www.w3.org/2000/svg" xmlns:xlink="http://www.w3.org/1999/xlink" version="1.1"><path d="M0 281L40 283.8C80 286.7 160 292.3 240 305.7C320 319 400 340 480 347.7C560 355.3 640 349.7 720 345.7C800 341.7 880 339.3 920 338.2L960 337L960 541L920 541C880 541 800 541 720 541C640 541 560 541 480 541C400 541 320 541 240 541C160 541 80 541 40 541L0 541Z" fill="#b5d0ab"></path><path d="M0 356L40 363.5C80 371 160 386 240 393.3C320 400.7 400 400.3 480 394.5C560 388.7 640 377.3 720 373.2C800 369 880 372 920 373.5L960 375L960 541L920 541C880 541 800 541 720 541C640 541 560 541 480 541C400 541 320 541 240 541C160 541 80 541 40 541L0 541Z" fill="#788a70"></path></svg>