<svg id="visual" viewBox="0 0 960 540" width="960" height="540" xmlns="http://www.w3.org/2000/svg" xmlns:xlink="http://www.w3.org/1999/xlink" version="1.1"><path d="M0 180L40 187.5C80 195 160 210 240 204.3C320 198.7 400 172.3 480 157.5C560 142.7 640 139.3 720 151.5C800 163.7 880 191.3 920 205.2L960 219L960 0L920 0C880 0 800 0 720 0C640 0 560 0 480 0C400 0 320 0 240 0C160 0 80 0 40 0L0 0Z" fill="#b5d0ab"></path><path d="M0 136L40 140C80 144 160 152 240 144.8C320 137.7 400 115.3 480 106.3C560 97.3 640 101.7 720 110.7C800 119.7 880 133.3 920 140.2L960 147L960 0L920 0C880 0 800 0 720 0C640 0 560 0 480 0C400 0 320 0 240 0C160 0 80 0 40 0L0 0Z" fill="#788a70"></path></svg>