<svg id="visual" viewBox="0 0 900 450" width="900" height="450" xmlns="http://www.w3.org/2000/svg" xmlns:xlink="http://www.w3.org/1999/xlink" version="1.1"><path d="M0 111L21.5 114.2C43 117.3 86 123.7 128.8 131.8C171.7 140 214.3 150 257.2 149.3C300 148.7 343 137.3 385.8 127.5C428.7 117.7 471.3 109.3 514.2 110.8C557 112.3 600 123.7 642.8 124C685.7 124.3 728.3 113.7 771.2 106.8C814 100 857 97 878.5 95.5L900 94L900 0L878.5 0C857 0 814 0 771.2 0C728.3 0 685.7 0 642.8 0C600 0 557 0 514.2 0C471.3 0 428.7 0 385.8 0C343 0 300 0 257.2 0C214.3 0 171.7 0 128.8 0C86 0 43 0 21.5 0L0 0Z" fill="#e1ecdd"></path><path d="M0 47L21.5 49.5C43 52 86 57 128.8 58.5C171.7 60 214.3 58 257.2 57.5C300 57 343 58 385.8 61.2C428.7 64.3 471.3 69.7 514.2 74.5C557 79.3 600 83.7 642.8 79.8C685.7 76 728.3 64 771.2 60C814 56 857 60 878.5 62L900 64L900 0L878.5 0C857 0 814 0 771.2 0C728.3 0 685.7 0 642.8 0C600 0 557 0 514.2 0C471.3 0 428.7 0 385.8 0C343 0 300 0 257.2 0C214.3 0 171.7 0 128.8 0C86 0 43 0 21.5 0L0 0Z" fill="#b5d0ab"></path></svg>